<svg width="32" height="32" viewBox="0 0 32 32" fill="none" xmlns="http://www.w3.org/2000/svg">
<path d="M17.0759 13.8759C16.4394 13.8759 15.829 14.1288 15.3789 14.5789C14.9288 15.029 14.6759 15.6394 14.6759 16.2759V20.2759C14.6759 20.4881 14.5917 20.6916 14.4416 20.8416C14.2916 20.9917 14.0881 21.0759 13.8759 21.0759C13.6638 21.0759 13.4603 20.9917 13.3103 20.8416C13.1602 20.6916 13.0759 20.4881 13.0759 20.2759V16.2759C13.0759 15.2151 13.4974 14.1977 14.2475 13.4475C14.9977 12.6974 16.0151 12.2759 17.0759 12.2759H18.3447L17.3095 11.2407C17.1638 11.0899 17.0832 10.8878 17.085 10.678C17.0868 10.4683 17.171 10.2676 17.3193 10.1193C17.4676 9.97096 17.6683 9.88683 17.878 9.88501C18.0878 9.88318 18.2899 9.96382 18.4407 10.1095L20.8407 12.5095C20.9907 12.6596 21.075 12.863 21.075 13.0751C21.075 13.2873 20.9907 13.4907 20.8407 13.6407L18.4407 16.0407C18.3669 16.1172 18.2787 16.1781 18.1811 16.22C18.0835 16.262 17.9785 16.284 17.8723 16.2849C17.766 16.2859 17.6607 16.2656 17.5624 16.2254C17.4641 16.1852 17.3747 16.1258 17.2996 16.0507C17.2245 15.9755 17.1651 15.8862 17.1249 15.7879C17.0847 15.6896 17.0644 15.5842 17.0653 15.478C17.0663 15.3718 17.0883 15.2668 17.1303 15.1692C17.1722 15.0716 17.2331 14.9833 17.3095 14.9095L18.3447 13.8759H17.0759ZM13.4471 5.17195C13.8186 4.8004 14.2596 4.50567 14.745 4.30458C15.2303 4.1035 15.7506 4 16.2759 4C16.8013 4 17.3216 4.1035 17.8069 4.30458C18.2923 4.50567 18.7333 4.8004 19.1047 5.17195L27.3783 13.4471C27.7499 13.8186 28.0446 14.2596 28.2457 14.745C28.4468 15.2303 28.5503 15.7506 28.5503 16.2759C28.5503 16.8013 28.4468 17.3216 28.2457 17.8069C28.0446 18.2923 27.7499 18.7333 27.3783 19.1047L19.1047 27.3783C18.7333 27.7499 18.2923 28.0446 17.8069 28.2457C17.3216 28.4468 16.8013 28.5503 16.2759 28.5503C15.7506 28.5503 15.2303 28.4468 14.745 28.2457C14.2596 28.0446 13.8186 27.7499 13.4471 27.3783L5.17195 19.1047C4.8004 18.7333 4.50567 18.2923 4.30458 17.8069C4.1035 17.3216 4 16.8013 4 16.2759C4 15.7506 4.1035 15.2303 4.30458 14.745C4.50567 14.2596 4.8004 13.8186 5.17195 13.4471L13.4471 5.17195ZM17.9719 6.30315C17.5219 5.85322 16.9115 5.60046 16.2751 5.60046C15.6388 5.60046 15.0284 5.85322 14.5783 6.30315L6.30315 14.5799C5.85322 15.03 5.60046 15.6404 5.60046 16.2767C5.60046 16.9131 5.85322 17.5235 6.30315 17.9735L14.5783 26.2487C15.0284 26.6987 15.6388 26.9514 16.2751 26.9514C16.9115 26.9514 17.5219 26.6987 17.9719 26.2487L26.2471 17.9735C26.6971 17.5235 26.9498 16.9131 26.9498 16.2767C26.9498 15.6404 26.6971 15.03 26.2471 14.5799L17.9719 6.30315Z" fill="white"/>
</svg>
