<svg width="16" height="16" viewBox="0 0 16 16" fill="none" xmlns="http://www.w3.org/2000/svg">
<path fill-rule="evenodd" clip-rule="evenodd" d="M11.0345 14.7554C10.0745 14.72 7.35384 14.344 4.5045 11.4954C1.65584 8.64602 1.2805 5.92602 1.2445 4.96535C1.19117 3.50135 2.3125 2.07936 3.60784 1.52402C3.76382 1.45667 3.93464 1.43102 4.10352 1.44961C4.27241 1.46819 4.43356 1.53036 4.57117 1.63002C5.63784 2.40735 6.37384 3.58336 7.00584 4.50802C7.14489 4.71117 7.20435 4.95839 7.17288 5.20255C7.1414 5.44672 7.0212 5.67077 6.83517 5.83202L5.5345 6.79802C5.47167 6.8434 5.42743 6.91004 5.41002 6.98557C5.39261 7.0611 5.4032 7.14038 5.43984 7.20869C5.7345 7.74402 6.2585 8.54136 6.8585 9.14136C7.4585 9.74135 8.29384 10.3 8.8665 10.628C8.93831 10.6683 9.02282 10.6796 9.10267 10.6595C9.18253 10.6394 9.25165 10.5895 9.29584 10.52L10.1425 9.23136C10.2982 9.02459 10.5278 8.88607 10.7833 8.84481C11.0388 8.80355 11.3003 8.86276 11.5132 9.01002C12.4512 9.65936 13.5458 10.3827 14.3472 11.4087C14.4549 11.5473 14.5235 11.7123 14.5456 11.8864C14.5678 12.0606 14.5428 12.2375 14.4732 12.3987C13.9152 13.7007 12.5032 14.8094 11.0345 14.7554Z" fill="white"/>
</svg>
