<svg width="25" height="24" viewBox="0 0 25 24" fill="none" xmlns="http://www.w3.org/2000/svg">
<path fill-rule="evenodd" clip-rule="evenodd" d="M6.0744 4.691C5.2414 5.383 5.0214 6.553 4.5824 8.894L3.8324 12.894C3.2154 16.186 2.9074 17.832 3.8064 18.916C4.7064 20 6.3804 20 9.7304 20H15.2704C18.6204 20 20.2944 20 21.1944 18.916C22.0944 17.832 21.7844 16.186 21.1684 12.894L20.4184 8.894C19.9784 6.554 19.7594 5.383 18.9264 4.691C18.0934 4 16.9024 4 14.5204 4H10.4804C8.0984 4 6.9074 4 6.0744 4.691ZM10.3784 7.751C10.5335 8.19004 10.8209 8.57018 11.201 8.83907C11.5811 9.10795 12.0353 9.25234 12.5009 9.25234C12.9665 9.25234 13.4207 9.10795 13.8008 8.83907C14.1809 8.57018 14.4683 8.19004 14.6234 7.751C14.6933 7.5685 14.8318 7.4205 15.0092 7.33853C15.1866 7.25656 15.389 7.24708 15.5733 7.31213C15.7576 7.37717 15.9093 7.51159 15.9959 7.68676C16.0826 7.86193 16.0975 8.06402 16.0374 8.25C15.7788 8.98134 15.2999 9.61454 14.6666 10.0624C14.0332 10.5102 13.2766 10.7507 12.5009 10.7507C11.7252 10.7507 10.9686 10.5102 10.3352 10.0624C9.70188 9.61454 9.22295 8.98134 8.9644 8.25C8.92968 8.15672 8.91388 8.05747 8.91792 7.95803C8.92195 7.85859 8.94573 7.76094 8.98788 7.67078C9.03003 7.58062 9.08971 7.49975 9.16342 7.43289C9.23714 7.36602 9.32343 7.3145 9.41727 7.28132C9.5111 7.24814 9.6106 7.23397 9.70996 7.23963C9.80932 7.24529 9.90657 7.27067 9.99602 7.31429C10.0855 7.35792 10.1654 7.41891 10.231 7.49371C10.2967 7.56851 10.3468 7.65664 10.3784 7.751Z" fill="#F9FAFF"/>
</svg>
