<svg width="24" height="24" viewBox="0 0 24 24" fill="none" xmlns="http://www.w3.org/2000/svg">
<path d="M22 17.5H2M22 21V16C22 14.114 22 13.172 21.414 12.586C20.828 12 19.886 12 18 12H6C4.114 12 3.172 12 2.586 12.586C2 13.172 2 14.114 2 16V21M16 12V10.618C16 10.11 15.909 9.941 15.44 9.741C14.463 9.324 13.278 9 12 9C10.722 9 9.537 9.324 8.56 9.74C8.092 9.94 8 10.11 8 10.618V12" stroke="black" stroke-opacity="0.85" stroke-width="1.5" stroke-linecap="round" stroke-linejoin="round"/>
<path d="M3 12V9C3 7.586 3 6.879 3.44 6.44C3.878 6 4.585 6 6 6C6.275 6 6.657 6.073 6.903 5.94C7.013 5.88 7.113 5.729 7.313 5.426C8.269 3.972 10.225 3 12 3C13.775 3 15.73 3.972 16.687 5.426C16.887 5.729 16.987 5.88 17.097 5.94C17.343 6.073 17.725 6 18 6C19.414 6 20.121 6 20.56 6.44C21 6.878 21 7.585 21 9V12" stroke="black" stroke-opacity="0.85" stroke-width="1.5" stroke-linecap="round" stroke-linejoin="round"/>
</svg>
