<svg width="25" height="24" viewBox="0 0 25 24" fill="none" xmlns="http://www.w3.org/2000/svg">
<path d="M11 10H15M13 8V12M4.21 5.4H19.424C20.802 5.4 21.797 6.67 21.419 7.948L19.765 13.548C19.51 14.408 18.696 15 17.77 15H8.612C7.685 15 6.87 14.407 6.616 13.548L4.21 5.4ZM4.21 5.4L3.5 3M17 21C17.3978 21 17.7794 20.842 18.0607 20.5607C18.342 20.2794 18.5 19.8978 18.5 19.5C18.5 19.1022 18.342 18.7206 18.0607 18.4393C17.7794 18.158 17.3978 18 17 18C16.6022 18 16.2206 18.158 15.9393 18.4393C15.658 18.7206 15.5 19.1022 15.5 19.5C15.5 19.8978 15.658 20.2794 15.9393 20.5607C16.2206 20.842 16.6022 21 17 21ZM9 21C9.39782 21 9.77936 20.842 10.0607 20.5607C10.342 20.2794 10.5 19.8978 10.5 19.5C10.5 19.1022 10.342 18.7206 10.0607 18.4393C9.77936 18.158 9.39782 18 9 18C8.60218 18 8.22064 18.158 7.93934 18.4393C7.65804 18.7206 7.5 19.1022 7.5 19.5C7.5 19.8978 7.65804 20.2794 7.93934 20.5607C8.22064 20.842 8.60218 21 9 21Z" stroke="#3A449B" stroke-width="1.5" stroke-linecap="round" stroke-linejoin="round"/>
</svg>
