<svg width="25" height="24" viewBox="0 0 25 24" fill="none" xmlns="http://www.w3.org/2000/svg">
<mask id="mask0_1241_4077" style="mask-type:luminance" maskUnits="userSpaceOnUse" x="2" y="2" width="21" height="20">
<path d="M3.5 10C3.5 8.114 3.5 7.172 4.086 6.586C4.672 6 5.614 6 7.5 6H17.5C19.386 6 20.328 6 20.914 6.586C21.5 7.172 21.5 8.114 21.5 10V11H3.5V10Z" stroke="white" stroke-width="1.2"/>
<path d="M19.5 6H5.5C4.39543 6 3.5 6.89543 3.5 8V19C3.5 20.1046 4.39543 21 5.5 21H19.5C20.6046 21 21.5 20.1046 21.5 19V8C21.5 6.89543 20.6046 6 19.5 6Z" stroke="white" stroke-width="1.2"/>
<path d="M7.5 3V8M17.5 3V8" stroke="white" stroke-width="1.2" stroke-linecap="round"/>
</mask>
<g mask="url(#mask0_1241_4077)">
<path d="M0.5 0H24.5V24H0.5V0Z" fill="#3A449B"/>
</g>
</svg>
