<svg width="25" height="24" viewBox="0 0 25 24" fill="none" xmlns="http://www.w3.org/2000/svg">
<path fill-rule="evenodd" clip-rule="evenodd" d="M10.4388 3.25H14.5608C16.4038 3.25 17.8628 3.25 19.0048 3.403C20.1788 3.561 21.1298 3.893 21.8798 4.641C22.9098 5.668 23.1598 7.081 23.2388 8.958V8.982C23.2468 9.146 23.2538 9.313 23.2468 9.454C23.243 9.65629 23.1919 9.8549 23.0978 10.034C23.0289 10.1539 22.938 10.2598 22.8298 10.346C22.7483 10.4104 22.6635 10.4704 22.5758 10.526C22.4128 10.629 22.1908 10.753 21.9318 10.898L21.9118 10.908C21.717 11.0161 21.5547 11.1744 21.4417 11.3664C21.3287 11.5585 21.2691 11.7772 21.2691 12C21.2691 12.2228 21.3287 12.4415 21.4417 12.6336C21.5547 12.8256 21.717 12.9839 21.9118 13.092L21.9318 13.102C22.1918 13.247 22.4118 13.371 22.5758 13.474C22.6608 13.528 22.7498 13.588 22.8298 13.654C22.9038 13.715 23.0148 13.818 23.0978 13.966C23.2178 14.18 23.2408 14.396 23.2478 14.546C23.2538 14.686 23.2468 14.854 23.2398 15.018L23.2388 15.042C23.1588 16.918 22.9088 18.332 21.8798 19.359C21.1298 20.107 20.1798 20.439 19.0048 20.597C17.8628 20.75 16.4038 20.75 14.5608 20.75H10.4398C8.59681 20.75 7.13781 20.75 5.99581 20.597C4.82081 20.439 3.87081 20.107 3.12081 19.359C2.09081 18.332 1.84081 16.919 1.76181 15.042V15.018C1.75262 14.8608 1.74962 14.7034 1.75281 14.546C1.75981 14.396 1.78281 14.18 1.90281 13.966C1.97174 13.8461 2.06266 13.7402 2.17081 13.654C2.25231 13.5896 2.33709 13.5296 2.42481 13.474C2.58781 13.371 2.80981 13.247 3.06881 13.102L3.08881 13.092C3.28361 12.9839 3.44593 12.8256 3.55895 12.6336C3.67197 12.4415 3.73156 12.2228 3.73156 12C3.73156 11.7772 3.67197 11.5585 3.55895 11.3664C3.44593 11.1744 3.28361 11.0161 3.08881 10.908L3.06881 10.898C2.80881 10.753 2.58881 10.629 2.42481 10.526C2.33634 10.4716 2.25149 10.4114 2.17081 10.346C2.06266 10.2598 1.97174 10.1539 1.90281 10.034C1.80834 9.85498 1.75698 9.65637 1.75281 9.454C1.74931 9.2886 1.75264 9.12313 1.76281 8.958C1.84081 7.082 2.09081 5.668 3.12081 4.641C3.87081 3.893 4.82081 3.561 5.99581 3.403C7.13681 3.25 8.59481 3.25 10.4388 3.25ZM21.7498 14.726V14.746L21.7408 14.979C21.6628 16.835 21.4098 17.711 20.8208 18.297C20.3968 18.721 19.8148 18.975 18.8058 19.11C17.7758 19.248 16.4168 19.25 14.5058 19.25H10.4958C8.58481 19.25 7.22581 19.248 6.19581 19.11C5.18581 18.975 4.60481 18.721 4.17981 18.297C3.59181 17.711 3.33881 16.835 3.25981 14.979L3.25181 14.726C3.37581 14.649 3.55481 14.549 3.81981 14.401C4.24737 14.1626 4.60351 13.8144 4.85144 13.3923C5.09936 12.9702 5.23008 12.4895 5.23008 12C5.23008 11.5105 5.09936 11.0298 4.85144 10.6077C4.60351 10.1856 4.24737 9.83739 3.81981 9.599C3.62841 9.49432 3.43904 9.38597 3.25181 9.274V9.254L3.26081 9.021C3.33881 7.165 3.59181 6.289 4.18081 5.703C4.60481 5.279 5.18581 5.025 6.19581 4.89C7.22581 4.752 8.58481 4.75 10.4958 4.75H14.5058C16.4168 4.75 17.7758 4.752 18.8058 4.89C19.8158 5.025 20.3968 5.279 20.8218 5.703C21.4088 6.289 21.6628 7.165 21.7408 9.021L21.7498 9.254V9.274C21.6258 9.351 21.4468 9.451 21.1818 9.599C20.754 9.83718 20.3976 10.1853 20.1495 10.6075C19.9013 11.0296 19.7705 11.5103 19.7705 12C19.7705 12.4897 19.9013 12.9704 20.1495 13.3925C20.3976 13.8147 20.754 14.1628 21.1818 14.401C21.4458 14.549 21.6258 14.649 21.7498 14.726ZM16.0298 8.47C16.1703 8.61063 16.2492 8.80125 16.2492 9C16.2492 9.19875 16.1703 9.38937 16.0298 9.53L10.0298 15.53C9.88764 15.6625 9.69959 15.7346 9.50529 15.7312C9.31099 15.7277 9.1256 15.649 8.98819 15.5116C8.85078 15.3742 8.77207 15.1888 8.76864 14.9945C8.76521 14.8002 8.83733 14.6122 8.96981 14.47L14.9698 8.47C15.1104 8.32955 15.3011 8.25066 15.4998 8.25066C15.6986 8.25066 15.8892 8.32955 16.0298 8.47Z" fill="#3A449B"/>
<path d="M16 14.5C16 14.7652 15.8946 15.0196 15.7071 15.2071C15.5196 15.3946 15.2652 15.5 15 15.5C14.7348 15.5 14.4804 15.3946 14.2929 15.2071C14.1054 15.0196 14 14.7652 14 14.5C14 14.2348 14.1054 13.9804 14.2929 13.7929C14.4804 13.6054 14.7348 13.5 15 13.5C15.2652 13.5 15.5196 13.6054 15.7071 13.7929C15.8946 13.9804 16 14.2348 16 14.5ZM11 9.5C11 9.76522 10.8946 10.0196 10.7071 10.2071C10.5196 10.3946 10.2652 10.5 10 10.5C9.73478 10.5 9.48043 10.3946 9.29289 10.2071C9.10536 10.0196 9 9.76522 9 9.5C9 9.23478 9.10536 8.98043 9.29289 8.79289C9.48043 8.60536 9.73478 8.5 10 8.5C10.2652 8.5 10.5196 8.60536 10.7071 8.79289C10.8946 8.98043 11 9.23478 11 9.5Z" fill="#3A449B"/>
</svg>
