<svg width="24" height="24" viewBox="0 0 24 24" fill="none" xmlns="http://www.w3.org/2000/svg">
<path d="M3.37207 23C2.79561 23 2.31397 22.8007 1.92716 22.4021C1.54035 22.0035 1.34736 21.5062 1.34819 20.91V10.5221C0.819354 10.1192 0.432542 9.59079 0.187755 8.93682C-0.0570314 8.28286 -0.0624618 7.58533 0.171464 6.84424L1.3908 2.69271C1.55789 2.16471 1.82732 1.75059 2.1991 1.45035C2.57171 1.15012 3.03204 1 3.58009 1H20.3726C20.9198 1 21.3785 1.14063 21.7486 1.42188C22.1179 1.70314 22.3886 2.10992 22.5607 2.64224L23.8276 6.84294C24.0624 7.5849 24.0574 8.28847 23.8126 8.95365C23.5678 9.61882 23.181 10.158 22.6521 10.5713V20.9087C22.6521 21.5049 22.4587 22.0022 22.0719 22.4008C21.6851 22.7994 21.2039 22.9991 20.6283 23H3.37207ZM14.7571 10.0588C15.5617 10.0588 16.1624 9.82588 16.5592 9.36C16.956 8.89498 17.1231 8.41443 17.0605 7.91835L16.2284 2.29412H12.628V7.72941C12.628 8.36525 12.8385 8.91224 13.2596 9.37035C13.6807 9.82933 14.179 10.0588 14.7571 10.0588ZM9.11912 10.0588C9.79249 10.0588 10.3368 9.82933 10.752 9.37035C11.1672 8.91137 11.3748 8.36439 11.3748 7.72941V2.29412H7.77321L6.9386 8.018C6.88764 8.42004 7.05765 8.86047 7.44864 9.33929C7.83963 9.81812 8.39729 10.058 9.11912 10.0588ZM3.54125 10.0588C4.09348 10.0588 4.563 9.86471 4.94981 9.47647C5.33663 9.08824 5.57723 8.6038 5.67164 8.02318L6.45738 2.29412H3.58009C3.3069 2.29412 3.08969 2.35624 2.92844 2.48047C2.7672 2.60471 2.6469 2.79149 2.56753 3.04082L1.41085 7.12765C1.20533 7.80749 1.29305 8.4662 1.67402 9.10377C2.05498 9.74133 2.67739 10.0597 3.54125 10.0588ZM20.4591 10.0588C21.2093 10.0588 21.8083 9.75686 22.2561 9.15294C22.7048 8.54902 22.8159 7.87392 22.5895 7.12765L21.3701 2.99165C21.2899 2.74231 21.1692 2.56373 21.008 2.45588C20.8467 2.34804 20.6299 2.29412 20.3576 2.29412H17.5429L18.3287 8.02318C18.4231 8.6038 18.6637 9.08824 19.0505 9.47647C19.4373 9.86471 19.9069 10.0588 20.4591 10.0588ZM3.37207 21.7059H20.6283C20.853 21.7059 21.0376 21.6313 21.1822 21.482C21.3267 21.3327 21.399 21.1421 21.399 20.91V11.1886C21.2302 11.249 21.0698 11.2913 20.9177 11.3154C20.7665 11.3404 20.6136 11.3529 20.4591 11.3529C19.8952 11.3529 19.3989 11.2395 18.9703 11.0126C18.5417 10.7857 18.1349 10.4233 17.7497 9.92553C17.4222 10.3465 17.0183 10.6895 16.5379 10.9544C16.0575 11.2192 15.4735 11.3521 14.786 11.3529C14.2864 11.3529 13.811 11.2326 13.3599 10.9919C12.9087 10.7512 12.4555 10.3953 12.0002 9.92424C11.5808 10.3953 11.1158 10.7512 10.6054 10.9919C10.0958 11.2326 9.60953 11.3529 9.14669 11.3529C8.62119 11.3529 8.10906 11.2494 7.6103 11.0424C7.11154 10.8353 6.67418 10.4626 6.29823 9.92424C5.6825 10.5601 5.14447 10.9569 4.68414 11.1148C4.22464 11.2736 3.84368 11.3529 3.54125 11.3529C3.38669 11.3529 3.23129 11.3404 3.07507 11.3154C2.918 11.2904 2.7601 11.2481 2.60137 11.1886V20.9087C2.60137 21.1416 2.67363 21.3327 2.81817 21.482C2.9627 21.6313 3.14733 21.7059 3.37207 21.7059Z" fill="#3A449B"/>
</svg>
