<svg width="24" height="24" viewBox="0 0 24 24" fill="none" xmlns="http://www.w3.org/2000/svg">
<path fill-rule="evenodd" clip-rule="evenodd" d="M9.93906 3.25H14.0611C15.9041 3.25 17.3631 3.25 18.5051 3.403C19.6791 3.561 20.6301 3.893 21.3801 4.641C22.4101 5.668 22.6601 7.081 22.7391 8.958V8.982C22.7471 9.146 22.7541 9.313 22.7471 9.454C22.7432 9.65629 22.6922 9.8549 22.5981 10.034C22.5291 10.1539 22.4382 10.2598 22.3301 10.346C22.2486 10.4104 22.1638 10.4704 22.0761 10.526C21.9131 10.629 21.6911 10.753 21.4321 10.898L21.4121 10.908C21.2173 11.0161 21.0549 11.1744 20.9419 11.3664C20.8289 11.5585 20.7693 11.7772 20.7693 12C20.7693 12.2228 20.8289 12.4415 20.9419 12.6336C21.0549 12.8256 21.2173 12.9839 21.4121 13.092L21.4321 13.102C21.6921 13.247 21.9121 13.371 22.0761 13.474C22.1611 13.528 22.2501 13.588 22.3301 13.654C22.4041 13.715 22.5151 13.818 22.5981 13.966C22.7181 14.18 22.7411 14.396 22.7481 14.546C22.7541 14.686 22.7471 14.854 22.7401 15.018L22.7391 15.042C22.6591 16.918 22.4091 18.332 21.3801 19.359C20.6301 20.107 19.6801 20.439 18.5051 20.597C17.3631 20.75 15.9041 20.75 14.0611 20.75H9.94006C8.09706 20.75 6.63806 20.75 5.49606 20.597C4.32106 20.439 3.37106 20.107 2.62106 19.359C1.59106 18.332 1.34106 16.919 1.26206 15.042V15.018C1.25287 14.8608 1.24986 14.7034 1.25306 14.546C1.26006 14.396 1.28306 14.18 1.40306 13.966C1.47198 13.8461 1.5629 13.7402 1.67106 13.654C1.75255 13.5896 1.83733 13.5296 1.92506 13.474C2.08806 13.371 2.31006 13.247 2.56906 13.102L2.58906 13.092C2.78385 12.9839 2.94617 12.8256 3.05919 12.6336C3.17221 12.4415 3.23181 12.2228 3.23181 12C3.23181 11.7772 3.17221 11.5585 3.05919 11.3664C2.94617 11.1744 2.78385 11.0161 2.58906 10.908L2.56906 10.898C2.30906 10.753 2.08906 10.629 1.92506 10.526C1.83658 10.4716 1.75174 10.4114 1.67106 10.346C1.5629 10.2598 1.47198 10.1539 1.40306 10.034C1.30858 9.85498 1.25722 9.65637 1.25306 9.454C1.24955 9.2886 1.25289 9.12313 1.26306 8.958C1.34106 7.082 1.59106 5.668 2.62106 4.641C3.37106 3.893 4.32106 3.561 5.49606 3.403C6.63706 3.25 8.09506 3.25 9.93906 3.25ZM21.2501 14.726V14.746L21.2411 14.979C21.1631 16.835 20.9101 17.711 20.3211 18.297C19.8971 18.721 19.3151 18.975 18.3061 19.11C17.2761 19.248 15.9171 19.25 14.0061 19.25H9.99606C8.08506 19.25 6.72606 19.248 5.69606 19.11C4.68606 18.975 4.10506 18.721 3.68006 18.297C3.09206 17.711 2.83906 16.835 2.76006 14.979L2.75206 14.726C2.87606 14.649 3.05506 14.549 3.32006 14.401C3.74761 14.1626 4.10375 13.8144 4.35168 13.3923C4.59961 12.9702 4.73033 12.4895 4.73033 12C4.73033 11.5105 4.59961 11.0298 4.35168 10.6077C4.10375 10.1856 3.74761 9.83739 3.32006 9.599C3.12866 9.49432 2.93929 9.38597 2.75206 9.274V9.254L2.76106 9.021C2.83906 7.165 3.09206 6.289 3.68106 5.703C4.10506 5.279 4.68606 5.025 5.69606 4.89C6.72606 4.752 8.08506 4.75 9.99606 4.75H14.0061C15.9171 4.75 17.2761 4.752 18.3061 4.89C19.3161 5.025 19.8971 5.279 20.3221 5.703C20.9091 6.289 21.1631 7.165 21.2411 9.021L21.2501 9.254V9.274C21.1261 9.351 20.9471 9.451 20.6821 9.599C20.2542 9.83718 19.8978 10.1853 19.6497 10.6075C19.4016 11.0296 19.2707 11.5103 19.2707 12C19.2707 12.4897 19.4016 12.9704 19.6497 13.3925C19.8978 13.8147 20.2542 14.1628 20.6821 14.401C20.9461 14.549 21.1261 14.649 21.2501 14.726ZM15.5301 8.47C15.6705 8.61063 15.7494 8.80125 15.7494 9C15.7494 9.19875 15.6705 9.38937 15.5301 9.53L9.53006 15.53C9.38788 15.6625 9.19984 15.7346 9.00553 15.7312C8.81123 15.7277 8.62585 15.649 8.48844 15.5116C8.35102 15.3742 8.27231 15.1888 8.26888 14.9945C8.26545 14.8002 8.33758 14.6122 8.47006 14.47L14.4701 8.47C14.6107 8.32955 14.8013 8.25066 15.0001 8.25066C15.1988 8.25066 15.3894 8.32955 15.5301 8.47Z" fill="black" fill-opacity="0.85"/>
<path d="M15.5 14.5C15.5 14.7652 15.3946 15.0196 15.2071 15.2071C15.0196 15.3946 14.7652 15.5 14.5 15.5C14.2348 15.5 13.9804 15.3946 13.7929 15.2071C13.6054 15.0196 13.5 14.7652 13.5 14.5C13.5 14.2348 13.6054 13.9804 13.7929 13.7929C13.9804 13.6054 14.2348 13.5 14.5 13.5C14.7652 13.5 15.0196 13.6054 15.2071 13.7929C15.3946 13.9804 15.5 14.2348 15.5 14.5ZM10.5 9.5C10.5 9.76522 10.3946 10.0196 10.2071 10.2071C10.0196 10.3946 9.76522 10.5 9.5 10.5C9.23478 10.5 8.98043 10.3946 8.79289 10.2071C8.60536 10.0196 8.5 9.76522 8.5 9.5C8.5 9.23478 8.60536 8.98043 8.79289 8.79289C8.98043 8.60536 9.23478 8.5 9.5 8.5C9.76522 8.5 10.0196 8.60536 10.2071 8.79289C10.3946 8.98043 10.5 9.23478 10.5 9.5Z" fill="black" fill-opacity="0.85"/>
</svg>
