<svg width="49" height="48" viewBox="0 0 49 48" fill="none" xmlns="http://www.w3.org/2000/svg">
<rect x="1" y="0.5" width="47" height="47" rx="23.5" fill="white"/>
<rect x="1" y="0.5" width="47" height="47" rx="23.5" stroke="#3A449B"/>
<path d="M23 22H27M25 20V24M16.21 17.4H31.424C32.802 17.4 33.797 18.67 33.419 19.948L31.765 25.548C31.51 26.408 30.696 27 29.77 27H20.612C19.685 27 18.87 26.407 18.616 25.548L16.21 17.4ZM16.21 17.4L15.5 15M29 33C29.3978 33 29.7794 32.842 30.0607 32.5607C30.342 32.2794 30.5 31.8978 30.5 31.5C30.5 31.1022 30.342 30.7206 30.0607 30.4393C29.7794 30.158 29.3978 30 29 30C28.6022 30 28.2206 30.158 27.9393 30.4393C27.658 30.7206 27.5 31.1022 27.5 31.5C27.5 31.8978 27.658 32.2794 27.9393 32.5607C28.2206 32.842 28.6022 33 29 33ZM21 33C21.3978 33 21.7794 32.842 22.0607 32.5607C22.342 32.2794 22.5 31.8978 22.5 31.5C22.5 31.1022 22.342 30.7206 22.0607 30.4393C21.7794 30.158 21.3978 30 21 30C20.6022 30 20.2206 30.158 19.9393 30.4393C19.658 30.7206 19.5 31.1022 19.5 31.5C19.5 31.8978 19.658 32.2794 19.9393 32.5607C20.2206 32.842 20.6022 33 21 33Z" stroke="#3A449B" stroke-width="1.5" stroke-linecap="round" stroke-linejoin="round"/>
</svg>
