<svg width="68" height="68" viewBox="0 0 68 68" fill="none" xmlns="http://www.w3.org/2000/svg">
<rect y="6.10352e-05" width="68" height="68" rx="34" fill="white" fill-opacity="0.3"/>
<rect x="0.5" y="0.500061" width="67" height="67" rx="33.5" stroke="#EF5F5F" stroke-opacity="0.3"/>
<path d="M42.3333 46.5001C42.3333 43.7384 38.6017 41.5001 34 41.5001C29.3983 41.5001 25.6667 43.7384 25.6667 46.5001M49 41.5001C49 39.4501 46.9433 37.6884 44 36.9167M19 41.5001C19 39.4501 21.0567 37.6884 24 36.9167M44 30.2267C44.4938 29.7902 44.8964 29.2604 45.1846 28.6677C45.4729 28.0751 45.6412 27.4313 45.6798 26.7733C45.7183 26.1154 45.6265 25.4563 45.4094 24.8341C45.1924 24.2118 44.8544 23.6385 44.4151 23.1473C43.9757 22.6561 43.4435 22.2566 42.8492 21.9717C42.2549 21.6869 41.6101 21.5224 40.952 21.4876C40.2938 21.4529 39.6353 21.5486 39.0143 21.7693C38.3933 21.9899 37.822 22.3312 37.3333 22.7734M24 30.2267C23.0205 29.3403 22.4316 28.1023 22.3619 26.7831C22.2923 25.4639 22.7475 24.1707 23.6283 23.186C24.509 22.2014 25.7436 21.6053 27.0624 21.528C28.3811 21.4507 29.6769 21.8984 30.6667 22.7734M34 36.5001C32.6739 36.5001 31.4021 35.9733 30.4645 35.0356C29.5268 34.0979 29 32.8261 29 31.5001C29 30.174 29.5268 28.9022 30.4645 27.9645C31.4021 27.0268 32.6739 26.5001 34 26.5001C35.3261 26.5001 36.5979 27.0268 37.5355 27.9645C38.4732 28.9022 39 30.174 39 31.5001C39 32.8261 38.4732 34.0979 37.5355 35.0356C36.5979 35.9733 35.3261 36.5001 34 36.5001Z" stroke="#EF5F5F" stroke-width="2" stroke-linecap="round" stroke-linejoin="round"/>
</svg>
