<svg width="68" height="68" viewBox="0 0 68 68" fill="none" xmlns="http://www.w3.org/2000/svg">
<rect y="6.10352e-05" width="68" height="68" rx="34" fill="white" fill-opacity="0.3"/>
<rect x="0.5" y="0.500061" width="67" height="67" rx="33.5" stroke="#EF5F5F" stroke-opacity="0.3"/>
<path d="M35.6765 39.4417L39.2048 34.2084M39.2048 34.2084L39.6232 33.5917C39.8925 33.1835 40.2667 32.8552 40.7064 32.6412C41.1462 32.4272 41.6353 32.3353 42.1228 32.3752C42.6102 32.415 43.078 32.5852 43.4771 32.8678C43.8762 33.1505 44.192 33.5352 44.3915 33.9817L48.7182 43.2167C49.6115 45.1201 48.2682 47.3334 46.2232 47.3334H21.7765C19.7365 47.3334 18.3932 45.1334 19.2748 43.2301L28.9548 22.2967C29.1709 21.8076 29.5256 21.3926 29.9751 21.1029C30.4246 20.8133 30.9491 20.6617 31.4838 20.6671C32.0185 20.6724 32.5399 20.8343 32.9835 21.1329C33.4271 21.4314 33.7735 21.8534 33.9798 22.3467L39.2048 34.2084Z" stroke="#EF5F5F" stroke-width="2" stroke-linecap="round" stroke-linejoin="round"/>
</svg>
