<svg width="68" height="68" viewBox="0 0 68 68" fill="none" xmlns="http://www.w3.org/2000/svg">
<rect y="6.10352e-05" width="68" height="68" rx="34" fill="white" fill-opacity="0.3"/>
<rect x="0.5" y="0.500061" width="67" height="67" rx="33.5" stroke="#EF5F5F" stroke-opacity="0.3"/>
<path d="M27.1498 27.0767C27.2886 26.9824 27.4069 26.8611 27.4978 26.7201C27.5887 26.5791 27.6503 26.4212 27.6788 26.2558C27.7074 26.0905 27.7024 25.9211 27.6641 25.7578C27.6259 25.5944 27.5551 25.4404 27.456 25.305C27.357 25.1696 27.2317 25.0555 27.0876 24.9695C26.9435 24.8835 26.7836 24.8275 26.6174 24.8046C26.4512 24.7817 26.2821 24.7926 26.1201 24.8365C25.9582 24.8804 25.8067 24.9564 25.6748 25.0601L27.1498 27.0767ZM21.0831 44.0001L19.8481 44.1967C19.8927 44.4719 20.0279 44.7243 20.2323 44.9138C20.4368 45.1034 20.6987 45.2191 20.9764 45.2427C21.2542 45.2662 21.5319 45.1963 21.7653 45.0439C21.9988 44.8915 22.1746 44.6655 22.2648 44.4017L21.0831 44.0001ZM31.5531 36.3984C31.8674 36.2923 32.1267 36.0657 32.2739 35.7685C32.4211 35.4712 32.4442 35.1277 32.3381 34.8134C32.2321 34.4991 32.0055 34.2398 31.7082 34.0926C31.411 33.9454 31.0674 33.9223 30.7531 34.0284L31.5531 36.3984ZM37.1231 20.9351L37.5281 21.4451L39.4881 19.8934L39.0831 19.3834L37.1231 20.9351ZM40.7398 23.1434L41.3731 23.1817L41.5281 20.6867L40.8948 20.6484L40.7398 23.1434ZM42.9348 26.4034L42.5965 26.9534L44.7248 28.2651L45.0648 27.7151L42.9348 26.4034ZM42.0681 30.5701L42.2331 31.2034L44.6515 30.5717L44.4848 29.9367L42.0681 30.5701ZM39.8915 33.7251L39.2781 33.5551L38.6115 35.9651L39.2231 36.1351L39.8915 33.7251ZM35.7031 34.1284L35.1731 34.4817L36.5598 36.5617L37.0898 36.2084L35.7031 34.1284ZM32.1631 32.8184L32.1231 32.1634L29.6265 32.3167L29.6681 32.9717L32.1631 32.8184ZM30.4915 28.8951L29.9981 28.4784L28.3848 30.3867L28.8781 30.8034L30.4915 28.8951ZM30.4798 24.9284L31.0681 24.6934L30.1398 22.3717L29.5515 22.6067L30.4798 24.9284ZM33.5898 22.0784L33.8148 21.4667L31.4681 20.6034L31.2448 21.2134L33.5898 22.0784ZM31.0681 24.6934C31.6131 24.4767 32.2448 24.2501 32.7115 23.7651L30.9081 22.0317C30.9231 22.0184 30.9165 22.0351 30.8031 22.0917C30.5855 22.193 30.3642 22.2864 30.1398 22.3717L31.0681 24.6934ZM31.2448 21.2134C31.1622 21.4479 31.0722 21.6797 30.9748 21.9084C30.9165 22.0334 30.8965 22.0451 30.9081 22.0317L32.7115 23.7651C33.1731 23.2851 33.3815 22.6451 33.5898 22.0784L31.2448 21.2134ZM29.9981 28.4767C29.0131 27.6434 28.3848 27.1101 27.9998 26.6734C27.8863 26.5553 27.7908 26.421 27.7165 26.2751C27.7054 26.2484 27.7015 26.2373 27.7048 26.2417V26.2517L25.2315 25.8917C25.0815 26.9084 25.5815 27.7101 26.1248 28.3284C26.6598 28.9334 27.4615 29.6067 28.3848 30.3867L29.9981 28.4767ZM29.5498 22.6067C28.4531 23.0451 27.4931 23.4234 26.8048 23.8301C26.0965 24.2467 25.3815 24.8634 25.2315 25.8917L27.7048 26.2517L27.6981 26.2684L27.7098 26.2534C27.8166 26.1455 27.9391 26.0545 28.0731 25.9834C28.5565 25.7001 29.3031 25.3984 30.4798 24.9284L29.5498 22.6067ZM32.1198 32.1634C32.0831 31.5484 32.0648 30.8834 31.7698 30.2917L29.5315 31.4051L29.5398 31.4301C29.5476 31.4501 29.5559 31.4945 29.5648 31.5634C29.5881 31.7234 29.6015 31.9384 29.6248 32.3167L32.1198 32.1634ZM28.8765 30.8034C29.1598 31.0451 29.3198 31.1801 29.4315 31.2917C29.4793 31.3395 29.5087 31.3712 29.5198 31.3867L29.5315 31.4051L31.7698 30.2917C31.4731 29.6951 30.9531 29.2851 30.4898 28.8951L28.8765 30.8034ZM35.1698 34.4817C34.1098 35.1884 33.4365 35.6317 32.9298 35.8701C32.4365 36.1001 32.4431 35.9701 32.5548 36.0284L31.3831 38.2367C32.3198 38.7334 33.2498 38.4784 33.9865 38.1367C34.7081 37.7984 35.5698 37.2201 36.5565 36.5617L35.1698 34.4817ZM29.6665 32.9717C29.7415 34.1984 29.8048 35.2551 29.9681 36.0534C30.1331 36.8534 30.4665 37.7517 31.3831 38.2367L32.5548 36.0284C32.6481 36.0784 32.5348 36.1234 32.4165 35.5484C32.2965 34.9684 32.2448 34.1267 32.1631 32.8184L29.6665 32.9717ZM39.2781 33.5551C38.7148 33.4001 38.0665 33.1917 37.4015 33.2984L37.7981 35.7667C37.7715 35.7717 37.7831 35.7601 37.9098 35.7834C38.0565 35.8134 38.2531 35.8667 38.6098 35.9651L39.2781 33.5551ZM37.0881 36.2084C37.3948 36.0034 37.5648 35.8917 37.6965 35.8184C37.8081 35.7567 37.8231 35.7634 37.7965 35.7684L37.4015 33.2984C36.7365 33.4051 36.1881 33.8034 35.7015 34.1284L37.0881 36.2084ZM42.2315 31.2051C42.5615 32.4717 42.7731 33.2884 42.8398 33.8767C42.9065 34.4601 42.7831 34.4517 42.8565 34.3767L44.6581 36.1101C45.3765 35.3617 45.4165 34.4034 45.3248 33.5934C45.2315 32.7851 44.9598 31.7601 44.6498 30.5717L42.2315 31.2051ZM39.2215 36.1367C40.3648 36.4534 41.3648 36.7317 42.1548 36.8267C42.9631 36.9234 43.9248 36.8734 44.6581 36.1101L42.8565 34.3767C42.9431 34.2867 42.9898 34.4084 42.4515 34.3434C41.8948 34.2767 41.1181 34.0651 39.8898 33.7267L39.2215 36.1367ZM42.5948 26.9534C42.2781 27.4701 41.9115 28.0201 41.8148 28.6801L44.2881 29.0417L44.2948 29.0184L44.3481 28.9017C44.4658 28.6849 44.5914 28.4726 44.7248 28.2651L42.5948 26.9534ZM44.4848 29.9367C44.4175 29.6943 44.3563 29.4497 44.3048 29.2034L44.2881 29.0667V29.0417L41.8148 28.6801C41.7181 29.3351 41.9098 29.9734 42.0648 30.5684L44.4848 29.9367ZM41.3731 23.1817C42.6381 23.2617 43.4381 23.3151 43.9848 23.4334C44.134 23.4593 44.2784 23.5076 44.4131 23.5767C44.4309 23.589 44.4365 23.5923 44.4298 23.5867L44.4198 23.5717L46.6565 22.4584C46.1931 21.5267 45.3198 21.1667 44.5165 20.9917C43.7365 20.8217 42.7065 20.7601 41.5281 20.6867L41.3731 23.1817ZM45.0648 27.7151C45.6981 26.6851 46.2465 25.7951 46.5665 25.0517C46.8915 24.2951 47.1165 23.3801 46.6565 22.4584L44.4181 23.5717L44.4165 23.5634V23.5984C44.3908 23.7603 44.3414 23.9176 44.2698 24.0651C44.0398 24.5984 43.6115 25.3051 42.9348 26.4034L45.0648 27.7151ZM37.5281 21.4451C37.9015 21.9184 38.2998 22.4617 38.8865 22.7751L40.0581 20.5667C40.0748 20.5751 40.0531 20.5701 39.9581 20.4701C39.7948 20.2829 39.6375 20.0906 39.4865 19.8934L37.5281 21.4451ZM40.8948 20.6484C40.6553 20.6375 40.4146 20.6181 40.1765 20.5901C40.0531 20.5717 40.0398 20.5567 40.0581 20.5667L38.8865 22.7751C39.4815 23.0917 40.1548 23.1067 40.7381 23.1417L40.8948 20.6484ZM39.0831 19.3834C38.3298 18.4301 37.6781 17.6017 37.0915 17.0501C36.5031 16.4951 35.6998 15.9467 34.6565 16.1134L35.0515 18.5817C34.9181 18.6034 34.9581 18.4734 35.3765 18.8701C35.7981 19.2667 36.3165 19.9167 37.1231 20.9367L39.0831 19.3834ZM33.8165 21.4667C34.2665 20.2467 34.5565 19.4667 34.8331 18.9567C35.1081 18.4501 35.1865 18.5601 35.0515 18.5817L34.6565 16.1134C33.6131 16.2801 33.0215 17.0534 32.6348 17.7634C32.2515 18.4717 31.8898 19.4634 31.4698 20.6034L33.8165 21.4667ZM25.6731 25.0584C21.3281 28.2367 18.2465 34.1917 19.8465 44.1967L22.3148 43.8034C20.8315 34.5267 23.7115 29.5917 27.1498 27.0767L25.6731 25.0584ZM22.2648 44.4017C23.4581 40.8851 27.1715 37.8751 31.5531 36.3984L30.7515 34.0284C25.9448 35.6501 21.4315 39.0784 19.8965 43.5984L22.2648 44.4017Z" fill="#EF5F5F"/>
<path d="M31.133 40.6667C31.133 40.6667 32.1897 42.9834 33.4897 43.7834C34.7897 44.5784 37.333 44.4667 37.333 44.4667C37.333 44.4667 35.0163 45.5217 34.2163 46.8217C33.4197 48.1217 33.533 50.6667 33.533 50.6667C33.533 50.6667 32.4763 48.3501 31.1763 47.5501C29.878 46.7567 27.333 46.8667 27.333 46.8667C27.333 46.8667 29.6497 45.8117 30.4497 44.5117C31.2463 43.2117 31.133 40.6667 31.133 40.6667ZM44.7997 39.0001C44.7997 39.0001 44.0963 40.5451 43.2297 41.0767C42.363 41.6084 40.6663 41.5334 40.6663 41.5334C40.6663 41.5334 42.2113 42.2367 42.743 43.1034C43.2747 43.9701 43.1997 45.6667 43.1997 45.6667C43.1997 45.6667 43.903 44.1217 44.7697 43.5901C45.6363 43.0584 47.333 43.1334 47.333 43.1334C47.333 43.1334 45.788 42.4301 45.2563 41.5634C44.7247 40.6967 44.7997 39.0001 44.7997 39.0001Z" stroke="#EF5F5F" stroke-width="1.5" stroke-linejoin="round"/>
</svg>
