<svg width="68" height="68" viewBox="0 0 68 68" fill="none" xmlns="http://www.w3.org/2000/svg">
<rect y="6.10352e-05" width="68" height="68" rx="34" fill="white" fill-opacity="0.3"/>
<rect x="0.5" y="0.500061" width="67" height="67" rx="33.5" stroke="#EF5F5F" stroke-opacity="0.3"/>
<path d="M20.6667 47.3334C22.3334 46.0174 23.6934 44.7001 25.8667 44.4001C27.7482 44.3996 29.5595 45.1146 30.9334 46.4001C31.6464 46.8995 32.4708 47.2169 33.3347 47.3244C34.1985 47.4319 35.0756 47.3263 35.8892 47.0169C36.7029 46.7074 37.4284 46.2035 38.0025 45.5491C38.5766 44.8947 38.9818 44.1098 39.1827 43.2627C40.0478 43.417 40.9389 43.3238 41.7533 42.994C42.5678 42.6642 43.2726 42.1111 43.7867 41.3984C44.3007 40.6857 44.6031 39.8424 44.659 38.9654C44.7149 38.0885 44.5221 37.2136 44.1027 36.4414C44.8671 36.1945 45.5547 35.7544 46.0992 35.1638C46.6436 34.5733 47.0264 33.8522 47.2105 33.0703C47.3946 32.2885 47.3738 31.4723 47.1501 30.7009C46.9263 29.9294 46.5073 29.2288 45.9334 28.6667C46.3668 28.2334 46.7105 27.7189 46.9451 27.1527C47.1796 26.5865 47.3003 25.9796 47.3003 25.3667C47.3003 24.7539 47.1796 24.147 46.9451 23.5808C46.7105 23.0146 46.3668 22.5001 45.9334 22.0667C45.5 21.6334 44.9856 21.2896 44.4193 21.0551C43.8531 20.8205 43.2463 20.6998 42.6334 20.6998C41.3957 20.6998 40.2086 21.1915 39.3334 22.0667C38.7714 21.4929 38.0707 21.0738 37.2993 20.8501C36.5278 20.6263 35.7117 20.6055 34.9298 20.7896C34.148 20.9737 33.4268 21.3565 32.8363 21.9009C32.2457 22.4454 31.8057 23.1331 31.5587 23.8974C30.7865 23.478 29.9116 23.2852 29.0347 23.3411C28.1577 23.3971 27.3144 23.6994 26.6017 24.2135C25.889 24.7275 25.336 25.4323 25.0061 26.2468C24.6763 27.0613 24.5832 27.9523 24.7374 28.8174C23.8977 29.0219 23.1204 29.4273 22.4721 29.9989C21.8239 30.5704 21.3243 31.2909 21.0163 32.0983C20.7083 32.9058 20.6011 33.776 20.7039 34.634C20.8068 35.4921 21.1166 36.3123 21.6067 37.0241C22.6654 38.5601 23.8787 40.2827 23.6001 42.1334C23.2347 44.3241 22.0187 45.6427 20.6667 47.3334ZM20.6667 47.3334L40.6667 27.3334" stroke="#EF5F5F" stroke-width="2" stroke-linecap="round" stroke-linejoin="round"/>
</svg>
