<svg width="24" height="25" viewBox="0 0 24 25" fill="none" xmlns="http://www.w3.org/2000/svg">
<path d="M19.5 6L18.88 16.025C18.722 18.586 18.643 19.867 18 20.788C17.6826 21.2432 17.2739 21.6273 16.8 21.916C15.843 22.5 14.56 22.5 11.994 22.5C9.424 22.5 8.139 22.5 7.18 21.915C6.70589 21.6257 6.29721 21.2409 5.98 20.785C5.338 19.863 5.26 18.58 5.106 16.015L4.5 6M3 6H21M16.056 6L15.373 4.592C14.92 3.656 14.693 3.189 14.302 2.897C14.2151 2.83232 14.1232 2.77479 14.027 2.725C13.594 2.5 13.074 2.5 12.035 2.5C10.969 2.5 10.436 2.5 9.995 2.734C9.89752 2.78621 9.80453 2.84642 9.717 2.914C9.322 3.217 9.101 3.702 8.659 4.671L8.053 6M9.5 17V11M14.5 17V11" stroke="#4F4F4F" stroke-width="1.5" stroke-linecap="round" stroke-linejoin="round"/>
</svg>
