<svg width="40" height="40" viewBox="0 0 40 40" fill="none" xmlns="http://www.w3.org/2000/svg">
<rect x="0.5" y="0.5" width="39" height="39" rx="19.5" stroke="#3A449B" stroke-opacity="0.3"/>
<path d="M23.553 23.553C24.2086 22.8973 24.7287 22.119 25.0835 21.2624C25.4383 20.4058 25.6209 19.4877 25.6209 18.5605C25.6209 17.6333 25.4383 16.7152 25.0835 15.8585C24.7287 15.0019 24.2086 14.2236 23.553 13.568C22.8973 12.9123 22.119 12.3923 21.2624 12.0374C20.4058 11.6826 19.4877 11.5 18.5605 11.5C17.6333 11.5 16.7152 11.6826 15.8585 12.0374C15.0019 12.3923 14.2236 12.9123 13.568 13.568C12.2439 14.8921 11.5 16.6879 11.5 18.5605C11.5 20.433 12.2439 22.2289 13.568 23.553C14.8921 24.8771 16.6879 25.6209 18.5605 25.6209C20.433 25.6209 22.2289 24.8771 23.553 23.553ZM23.553 23.553L28 28" stroke="#3A449B" stroke-width="1.5" stroke-linecap="round" stroke-linejoin="round"/>
</svg>
