<svg width="22" height="18" viewBox="0 0 22 18" fill="none" xmlns="http://www.w3.org/2000/svg">
<path fill-rule="evenodd" clip-rule="evenodd" d="M8.9393 0.25H13.0613C14.9043 0.25 16.3633 0.25 17.5053 0.403C18.6793 0.561 19.6303 0.893 20.3803 1.641C21.4103 2.668 21.6603 4.081 21.7393 5.958V5.982C21.7473 6.146 21.7543 6.313 21.7473 6.454C21.7434 6.65629 21.6924 6.8549 21.5983 7.034C21.5294 7.15393 21.4385 7.25977 21.3303 7.346C21.2488 7.41036 21.164 7.47044 21.0763 7.526C20.9133 7.629 20.6913 7.753 20.4323 7.898L20.4123 7.908C20.2175 8.01615 20.0552 8.17443 19.9422 8.36644C19.8291 8.55845 19.7696 8.7772 19.7696 9C19.7696 9.2228 19.8291 9.44155 19.9422 9.63356C20.0552 9.82557 20.2175 9.98385 20.4123 10.092L20.4323 10.102C20.6923 10.247 20.9123 10.371 21.0763 10.474C21.1613 10.528 21.2503 10.588 21.3303 10.654C21.4043 10.715 21.5153 10.818 21.5983 10.966C21.7183 11.18 21.7413 11.396 21.7483 11.546C21.7543 11.686 21.7473 11.854 21.7403 12.018L21.7393 12.042C21.6593 13.918 21.4093 15.332 20.3803 16.359C19.6303 17.107 18.6803 17.439 17.5053 17.597C16.3633 17.75 14.9043 17.75 13.0613 17.75H8.9403C7.0973 17.75 5.6383 17.75 4.4963 17.597C3.3213 17.439 2.3713 17.107 1.6213 16.359C0.591301 15.332 0.341301 13.919 0.262301 12.042V12.018C0.25311 11.8608 0.250108 11.7034 0.253301 11.546C0.260301 11.396 0.283301 11.18 0.403301 10.966C0.472223 10.8461 0.563146 10.7402 0.671301 10.654C0.752795 10.5896 0.837576 10.5296 0.925301 10.474C1.0883 10.371 1.3103 10.247 1.5693 10.102L1.5893 10.092C1.7841 9.98385 1.94642 9.82557 2.05944 9.63356C2.17245 9.44155 2.23205 9.2228 2.23205 9C2.23205 8.7772 2.17245 8.55845 2.05944 8.36644C1.94642 8.17443 1.7841 8.01615 1.5893 7.908L1.5693 7.898C1.3093 7.753 1.0893 7.629 0.925301 7.526C0.836828 7.47156 0.751983 7.41143 0.671301 7.346C0.563146 7.25977 0.472223 7.15393 0.403301 7.034C0.308828 6.85498 0.257464 6.65637 0.253301 6.454C0.249795 6.2886 0.253131 6.12313 0.263301 5.958C0.341301 4.082 0.591301 2.668 1.6213 1.641C2.3713 0.893 3.3213 0.561 4.4963 0.403C5.6373 0.25 7.0953 0.25 8.9393 0.25ZM20.2503 11.726V11.746L20.2413 11.979C20.1633 13.835 19.9103 14.711 19.3213 15.297C18.8973 15.721 18.3153 15.975 17.3063 16.11C16.2763 16.248 14.9173 16.25 13.0063 16.25H8.9963C7.0853 16.25 5.7263 16.248 4.6963 16.11C3.6863 15.975 3.1053 15.721 2.6803 15.297C2.0923 14.711 1.8393 13.835 1.7603 11.979L1.7523 11.726C1.8763 11.649 2.0553 11.549 2.3203 11.401C2.74786 11.1626 3.104 10.8144 3.35193 10.3923C3.59985 9.97017 3.73057 9.48952 3.73057 9C3.73057 8.51048 3.59985 8.02983 3.35193 7.60773C3.104 7.18563 2.74786 6.83739 2.3203 6.599C2.1289 6.49432 1.93953 6.38597 1.7523 6.274V6.254L1.7613 6.021C1.8393 4.165 2.0923 3.289 2.6813 2.703C3.1053 2.279 3.6863 2.025 4.6963 1.89C5.7263 1.752 7.0853 1.75 8.9963 1.75H13.0063C14.9173 1.75 16.2763 1.752 17.3063 1.89C18.3163 2.025 18.8973 2.279 19.3223 2.703C19.9093 3.289 20.1633 4.165 20.2413 6.021L20.2503 6.254V6.274C20.1263 6.351 19.9473 6.451 19.6823 6.599C19.2545 6.83718 18.8981 7.18534 18.6499 7.60746C18.4018 8.02959 18.271 8.51035 18.271 9C18.271 9.48965 18.4018 9.97041 18.6499 10.3925C18.8981 10.8147 19.2545 11.1628 19.6823 11.401C19.9463 11.549 20.1263 11.649 20.2503 11.726ZM14.5303 5.47C14.6708 5.61063 14.7496 5.80125 14.7496 6C14.7496 6.19875 14.6708 6.38937 14.5303 6.53L8.5303 12.53C8.38813 12.6625 8.20008 12.7346 8.00578 12.7312C7.81148 12.7277 7.62609 12.649 7.48868 12.5116C7.35127 12.3742 7.27255 12.1888 7.26913 11.9945C7.2657 11.8002 7.33782 11.6122 7.4703 11.47L13.4703 5.47C13.6109 5.32955 13.8015 5.25066 14.0003 5.25066C14.1991 5.25066 14.3897 5.32955 14.5303 5.47Z" fill="#3A449B"/>
</svg>
